<?xml version="1.0" encoding="UTF-8"?><svg xmlns="http://www.w3.org/2000/svg" xmlns:xlink="http://www.w3.org/1999/xlink" fill-opacity="1" color-rendering="auto" color-interpolation="auto" text-rendering="auto" stroke="black" stroke-linecap="square" width="985" stroke-miterlimit="10" shape-rendering="auto" stroke-opacity="1" fill="black" stroke-dasharray="none" font-weight="normal" stroke-width="1" height="374" font-family="'Dialog'" font-style="normal" stroke-linejoin="miter" font-size="12px" stroke-dashoffset="0" image-rendering="auto">
  <!--Generated by ySVG 2.5-->
  <defs id="genericDefs"/>
  <g>
    <defs id="defs1">
      <clipPath clipPathUnits="userSpaceOnUse" id="clipPath1">
        <path d="M0 0 L985 0 L985 374 L0 374 L0 0 Z"/>
      </clipPath>
      <clipPath clipPathUnits="userSpaceOnUse" id="clipPath2">
        <path d="M167 107 L1152 107 L1152 481 L167 481 L167 107 Z"/>
      </clipPath>
    </defs>
    <g fill="white" text-rendering="geometricPrecision" shape-rendering="geometricPrecision" transform="translate(-167,-107)" stroke="white">
      <rect x="167" width="985" height="374" y="107" clip-path="url(#clipPath2)" stroke="none"/>
    </g>
    <g text-rendering="geometricPrecision" stroke-miterlimit="1.45" stroke-width="3" shape-rendering="geometricPrecision" transform="matrix(1,0,0,1,-167,-107)" stroke-linecap="butt">
      <ellipse rx="73.5" fill="none" ry="54" clip-path="url(#clipPath2)" cx="255.5" cy="343"/>
    </g>
    <g font-size="14px" stroke-linecap="butt" transform="matrix(1,0,0,1,-167,-107)" text-rendering="geometricPrecision" font-family="sans-serif" shape-rendering="geometricPrecision" font-weight="bold" stroke-miterlimit="1.45">
      <text x="216.2412" xml:space="preserve" y="348.291" clip-path="url(#clipPath2)" stroke="none">Zgłoszenie</text>
    </g>
    <g text-rendering="geometricPrecision" stroke-miterlimit="1.45" stroke-width="3" shape-rendering="geometricPrecision" transform="matrix(1,0,0,1,-167,-107)" stroke-linecap="butt">
      <ellipse rx="73.5" fill="none" ry="54" clip-path="url(#clipPath2)" cx="456.5" cy="343"/>
    </g>
    <g font-size="14px" stroke-linecap="butt" transform="matrix(1,0,0,1,-167,-107)" text-rendering="geometricPrecision" font-family="sans-serif" shape-rendering="geometricPrecision" font-weight="bold" stroke-miterlimit="1.45">
      <text x="433.3774" xml:space="preserve" y="348.291" clip-path="url(#clipPath2)" stroke="none">Triage</text>
    </g>
    <g text-rendering="geometricPrecision" stroke-miterlimit="1.45" stroke-width="3" shape-rendering="geometricPrecision" transform="matrix(1,0,0,1,-167,-107)" stroke-linecap="butt">
      <ellipse rx="73.5" fill="none" ry="54" clip-path="url(#clipPath2)" cx="657.5" cy="274"/>
    </g>
    <g font-size="14px" stroke-linecap="butt" transform="matrix(1,0,0,1,-167,-107)" text-rendering="geometricPrecision" font-family="sans-serif" shape-rendering="geometricPrecision" font-weight="bold" stroke-miterlimit="1.45">
      <text x="629.4556" xml:space="preserve" y="279.291" clip-path="url(#clipPath2)" stroke="none">Backlog</text>
    </g>
    <g text-rendering="geometricPrecision" stroke-miterlimit="1.45" stroke-width="3" shape-rendering="geometricPrecision" transform="matrix(1,0,0,1,-167,-107)" stroke-linecap="butt">
      <ellipse rx="73.5" fill="none" ry="54" clip-path="url(#clipPath2)" cx="664.5" cy="412"/>
    </g>
    <g font-size="14px" stroke-linecap="butt" transform="matrix(1,0,0,1,-167,-107)" text-rendering="geometricPrecision" font-family="sans-serif" shape-rendering="geometricPrecision" font-weight="bold" stroke-miterlimit="1.45">
      <text x="610.0518" xml:space="preserve" y="417.291" clip-path="url(#clipPath2)" stroke="none">Szybka ścieżka</text>
    </g>
    <g text-rendering="geometricPrecision" stroke-miterlimit="1.45" stroke-width="3" shape-rendering="geometricPrecision" transform="matrix(1,0,0,1,-167,-107)" stroke-linecap="butt">
      <ellipse rx="73.5" fill="none" ry="54" clip-path="url(#clipPath2)" cx="858.5" cy="343"/>
    </g>
    <g font-size="14px" stroke-linecap="butt" transform="matrix(1,0,0,1,-167,-107)" text-rendering="geometricPrecision" font-family="sans-serif" shape-rendering="geometricPrecision" font-weight="bold" stroke-miterlimit="1.45">
      <text x="826.9146" xml:space="preserve" y="348.291" clip-path="url(#clipPath2)" stroke="none">Naprawa</text>
    </g>
    <g text-rendering="geometricPrecision" stroke-miterlimit="1.45" stroke-width="3" shape-rendering="geometricPrecision" transform="matrix(1,0,0,1,-167,-107)" stroke-linecap="butt">
      <ellipse rx="73.5" fill="none" ry="54" clip-path="url(#clipPath2)" cx="456.5" cy="176"/>
    </g>
    <g font-size="14px" stroke-linecap="butt" transform="matrix(1,0,0,1,-167,-107)" text-rendering="geometricPrecision" font-family="sans-serif" shape-rendering="geometricPrecision" font-weight="bold" stroke-miterlimit="1.45">
      <text x="419.1553" xml:space="preserve" y="181.291" clip-path="url(#clipPath2)" stroke="none">WON'T FIX</text>
    </g>
    <g text-rendering="geometricPrecision" stroke-miterlimit="1.45" stroke-width="3" shape-rendering="geometricPrecision" transform="matrix(1,0,0,1,-167,-107)" stroke-linecap="butt">
      <ellipse rx="73.5" fill="none" ry="54" clip-path="url(#clipPath2)" cx="1063.5" cy="343"/>
    </g>
    <g font-size="14px" stroke-linecap="butt" transform="matrix(1,0,0,1,-167,-107)" text-rendering="geometricPrecision" font-family="sans-serif" shape-rendering="geometricPrecision" font-weight="bold" stroke-miterlimit="1.45">
      <text x="1028.042" xml:space="preserve" y="340.0469" clip-path="url(#clipPath2)" stroke="none">Napisanie</text>
      <text x="1043.1768" xml:space="preserve" y="356.5352" clip-path="url(#clipPath2)" stroke="none">Testu</text>
      <path fill="none" d="M329 343 L375 343" clip-path="url(#clipPath2)"/>
      <path d="M383 343 L371 338 L374 343 L371 348 Z" stroke="none" clip-path="url(#clipPath2)"/>
      <path fill="none" d="M523.0897 320.1409 L583.3438 299.4566" clip-path="url(#clipPath2)"/>
      <path d="M590.9104 296.8591 L577.9371 296.0262 L582.398 299.7813 L581.184 305.4844 Z" stroke="none" clip-path="url(#clipPath2)"/>
      <path fill="none" d="M523.488 365.222 L589.9189 387.2592" clip-path="url(#clipPath2)"/>
      <path d="M597.512 389.778 L587.6966 381.254 L588.9697 386.9443 L584.548 390.7454 Z" stroke="none" clip-path="url(#clipPath2)"/>
      <path fill="none" d="M724.0897 296.8591 L784.3438 317.5434" clip-path="url(#clipPath2)"/>
      <path d="M791.9104 320.1409 L782.184 311.5156 L783.398 317.2187 L778.9371 320.9738 Z" stroke="none" clip-path="url(#clipPath2)"/>
      <path fill="none" d="M730.6556 388.4704 L784.8069 369.2104" clip-path="url(#clipPath2)"/>
      <path d="M792.3444 366.5296 L779.3627 365.8399 L783.8648 369.5455 L782.7137 375.2617 Z" stroke="none" clip-path="url(#clipPath2)"/>
      <path fill="none" d="M456.5 289 L456.5 238" clip-path="url(#clipPath2)"/>
      <path d="M456.5 230 L451.5 242 L456.5 239 L461.5 242 Z" stroke="none" clip-path="url(#clipPath2)"/>
      <path fill="none" d="M596.2585 244.141 L524.9323 209.365" clip-path="url(#clipPath2)"/>
      <path d="M517.7415 205.859 L526.3364 215.6123 L525.8311 209.8033 L530.7189 206.6237 Z" stroke="none" clip-path="url(#clipPath2)"/>
      <path fill="none" d="M932 343 L982 343" clip-path="url(#clipPath2)"/>
      <path d="M990 343 L978 338 L981 343 L978 348 Z" stroke="none" clip-path="url(#clipPath2)"/>
    </g>
  </g>
</svg>
